<svg xmlns="http://www.w3.org/2000/svg" width="1600" height="900" fill="none" style="color-scheme:light dark" viewBox="0 0 1600 900"><style>text{font-family:&quot;Space Grotesk&quot;,&quot;Sora&quot;,&quot;IBM Plex Sans&quot;,sans-serif}</style><defs><radialGradient id="glow" cx="0" cy="0" r="1" gradientTransform="rotate(45 -250.416 556.274)scale(420)" gradientUnits="userSpaceOnUse"><stop stop-color="#F97316" stop-opacity=".35"/><stop offset="1" stop-color="#F97316" stop-opacity="0"/></radialGradient></defs><path fill="#0B0D12" d="M0 0h1600v900H0z"/><path fill="url(#glow)" d="M0 0h1600v900H0z"/><path stroke="#1F2A37" d="M80 0v900M160 0v900M240 0v900M320 0v900M400 0v900M480 0v900M560 0v900M640 0v900M720 0v900M800 0v900M880 0v900M960 0v900m80-900v900m80-900v900m80-900v900m80-900v900m80-900v900m80-900v900m80-900v900M0 80h1600M0 160h1600M0 240h1600M0 320h1600M0 400h1600M0 480h1600M0 560h1600M0 640h1600M0 720h1600M0 800h1600M0 880h1600" opacity=".25"/><g transform="translate(120 220)scale(.8203)"><rect width="448" height="448" x="32" y="32" fill="#111827" rx="96"/><rect width="408" height="408" x="52" y="52" stroke="#263142" stroke-width="2" rx="84"/><path stroke="#F97316" stroke-linejoin="round" stroke-width="28" d="M256 112 128 400h256Z"/><path stroke="#F97316" stroke-linecap="round" stroke-linejoin="round" stroke-width="28" d="m196 276 42 42 92-92"/><circle cx="388" cy="156" r="18" fill="#F97316" fill-opacity=".9"/></g><text x="760" y="320" fill="#E6EDF7" font-size="72" font-weight="700" letter-spacing="-.02em">it-seems-fine-linter</text><text x="760" y="420" fill="#9AA8BD" font-size="30">Detect vibes-based engineering and score</text><text x="760" y="458" fill="#9AA8BD" font-size="30">the risk.</text><g transform="translate(760 540)"><rect width="170" height="40" fill="#111827" stroke="#263142" rx="20"/><text x="18" y="20" fill="#E6EDF7" dominant-baseline="middle" font-size="24">Risk score</text></g><g transform="translate(944 540)"><rect width="197" height="40" fill="#111827" stroke="#263142" rx="20"/><text x="18" y="20" fill="#E6EDF7" dominant-baseline="middle" font-size="24">Phrase packs</text></g><g transform="translate(1155 540)"><rect width="224" height="40" fill="#111827" stroke="#263142" rx="20"/><text x="18" y="20" fill="#E6EDF7" dominant-baseline="middle" font-size="24">CI strict mode</text></g></svg>