<svg xmlns="http://www.w3.org/2000/svg" width="1600" height="900" fill="none" style="color-scheme:light dark" viewBox="0 0 1600 900"><style>text{font-family:&quot;Space Grotesk&quot;,&quot;Sora&quot;,&quot;IBM Plex Sans&quot;,sans-serif}</style><defs><radialGradient id="glow" cx="0" cy="0" r="1" gradientTransform="rotate(45 -250.416 556.274)scale(420)" gradientUnits="userSpaceOnUse"><stop stop-color="#F97316" stop-opacity=".35"/><stop offset="1" stop-color="#F97316" stop-opacity="0"/></radialGradient><clipPath id="heroClip"><rect width="1600" height="900" rx="36"/></clipPath></defs><g clip-path="url(#heroClip)"><path fill="#0B0D12" d="M0 0h1600v900H0z"/><path fill="url(#glow)" d="M0 0h1600v900H0z"/><path stroke="#1F2A37" d="M80 0v900M160 0v900M240 0v900M320 0v900M400 0v900M480 0v900M560 0v900M640 0v900M720 0v900M800 0v900M880 0v900M960 0v900m80-900v900m80-900v900m80-900v900m80-900v900m80-900v900m80-900v900m80-900v900M0 80h1600M0 160h1600M0 240h1600M0 320h1600M0 400h1600M0 480h1600M0 560h1600M0 640h1600M0 720h1600M0 800h1600M0 880h1600" opacity=".25"/><g transform="translate(120 220)scale(6.5625)"><g clip-path="url(#clip0_314_93)"><path fill="url(#paint0_linear_314_93)" d="M52 0H12C5.373 0 0 5.373 0 12v40c0 6.627 5.373 12 12 12h40c6.627 0 12-5.373 12-12V12c0-6.627-5.373-12-12-12"/><path stroke="#fff" stroke-linecap="round" stroke-linejoin="round" stroke-width="6" d="M21 24.818 29.125 33 47 15"/><path stroke="#000" stroke-linecap="round" stroke-width="4" d="M20 53q6-4 12 0t12 0m-24-8q6-4 12 0t12 0" opacity=".6"/></g><defs><linearGradient id="paint0_linear_314_93" x1="0" x2="4096" y1="0" y2="4096" gradientUnits="userSpaceOnUse"><stop stop-color="#00FF5E"/><stop offset="1" stop-color="#00F583"/></linearGradient><clipPath id="clip0_314_93"><path fill="#fff" d="M0 0h64v64H0z"/></clipPath></defs></g><text x="760" y="320" fill="#E6EDF7" font-size="72" font-weight="700" letter-spacing="-.02em">it-seems-fine-linter</text><text x="760" y="420" fill="#9AA8BD" font-size="30">Detect vibes-based engineering and score</text><text x="760" y="458" fill="#9AA8BD" font-size="30">the risk.</text><g transform="translate(760 540)"><rect width="149" height="40" fill="#111827" stroke="#263142" rx="20"/><text x="75" y="20" fill="#E6EDF7" dominant-baseline="middle" font-size="24" text-anchor="middle">Risk score</text></g><g transform="translate(923 540)"><rect width="174" height="40" fill="#111827" stroke="#263142" rx="20"/><text x="87" y="20" fill="#E6EDF7" dominant-baseline="middle" font-size="24" text-anchor="middle">Phrase packs</text></g><g transform="translate(1111 540)"><rect width="199" height="40" fill="#111827" stroke="#263142" rx="20"/><text x="100" y="20" fill="#E6EDF7" dominant-baseline="middle" font-size="24" text-anchor="middle">CI strict mode</text></g></g></svg>