<svg xmlns="http://www.w3.org/2000/svg" width="64" height="64" fill="none" viewBox="0 0 64 64"><g clip-path="url(#a)"><path fill="url(#b)" d="M52 0H12C5.373 0 0 5.373 0 12v40c0 6.627 5.373 12 12 12h40c6.627 0 12-5.373 12-12V12c0-6.627-5.373-12-12-12"/><path stroke="#fff" stroke-linecap="round" stroke-linejoin="round" stroke-width="6" d="M21 24.818 29.125 33 47 15"/><path stroke="#000" stroke-linecap="round" stroke-width="4" d="M20 53q6-4 12 0t12 0m-24-8q6-4 12 0t12 0" opacity=".6"/></g><defs><linearGradient id="b" x1="0" x2="4096" y1="0" y2="4096" gradientUnits="userSpaceOnUse"><stop stop-color="#00FF5E"/><stop offset="1" stop-color="#00F583"/></linearGradient><clipPath id="a"><path fill="#fff" d="M0 0h64v64H0z"/></clipPath></defs></svg>