<svg xmlns="http://www.w3.org/2000/svg" width="1280" height="640" fill="none" style="color-scheme:light dark" viewBox="0 0 1280 640"><style>text{font-family:&quot;Space Grotesk&quot;,&quot;Sora&quot;,&quot;IBM Plex Sans&quot;,sans-serif}</style><defs><linearGradient id="edge" x1="0" x2="1" y1="0" y2="1"><stop offset="0" stop-color="#F97316" stop-opacity=".18"/><stop offset="1" stop-color="#F97316" stop-opacity="0"/></linearGradient></defs><path fill="#0B0D12" d="M0 0h1280v640H0z"/><path fill="url(#edge)" d="M0 0h1280v640H0z"/><path stroke="#1F2A37" d="M80 0v640M160 0v640M240 0v640M320 0v640M400 0v640M480 0v640M560 0v640M640 0v640M720 0v640M800 0v640M880 0v640M960 0v640m80-640v640m80-640v640m80-640v640M0 80h1280M0 160h1280M0 240h1280M0 320h1280M0 400h1280M0 480h1280M0 560h1280" opacity=".22"/><g transform="translate(140 200)scale(.4688)"><rect width="448" height="448" x="32" y="32" fill="#111827" rx="96"/><rect width="408" height="408" x="52" y="52" stroke="#263142" stroke-width="2" rx="84"/><path stroke="#F97316" stroke-linejoin="round" stroke-width="28" d="M256 112 128 400h256Z"/><path stroke="#F97316" stroke-linecap="round" stroke-linejoin="round" stroke-width="28" d="m196 276 42 42 92-92"/><circle cx="388" cy="156" r="18" fill="#F97316" fill-opacity=".9"/></g><text x="520" y="270" fill="#E6EDF7" font-size="60" font-weight="700" letter-spacing="-.02em">it-seems-fine-linter</text><text x="520" y="330" fill="#9AA8BD" font-size="26">Turns vague language into a measurable risk</text><text x="520" y="362" fill="#9AA8BD" font-size="26">score for CI.</text><g transform="translate(520 420)"><rect width="159" height="40" fill="#111827" stroke="#263142" rx="20"/><text x="18" y="26" fill="#E6EDF7" font-size="22">Risk score</text></g><g transform="translate(693 420)"><rect width="184" height="40" fill="#111827" stroke="#263142" rx="20"/><text x="18" y="26" fill="#E6EDF7" font-size="22">Phrase packs</text></g><rect width="200" height="12" x="980" y="460" fill="#F97316" fill-opacity=".25" rx="6"/><rect width="160" height="12" x="980" y="488" fill="#F97316" fill-opacity=".35" rx="6"/></svg>